HIERARCHY
ROOT Hips
{
	OFFSET -3.958830 18.904000 13.208200
	CHANNELS 6 Xposition Yposition Zposition Zrotation Yrotation Xrotation 
	JOINT LHipJoint
	{
		OFFSET 0.000000 0.000000 0.000000
		CHANNELS 3 Zrotation Yrotation Xrotation
		JOINT LeftUpLeg
		{
			OFFSET 1.800000 -1.400000 0.085000
			CHANNELS 3 Zrotation Yrotation Xrotation
			JOINT LeftLeg
			{
				OFFSET 2.215000 -6.000000 0.000000
				CHANNELS 3 Zrotation Yrotation Xrotation
				JOINT LeftFoot
				{
					OFFSET 2.500000 -6.900000 0.000000
					CHANNELS 3 Zrotation Yrotation Xrotation
					JOINT LeftToeBase
					{
						OFFSET 0.200000 -0.500000 1.950000
						CHANNELS 3 Zrotation Yrotation Xrotation
						End Site
						{
							OFFSET 0.000000 0.000000 0.000000
						}
					}
				}
			}
		}
	}
	JOINT RHipJoint
	{
		OFFSET 0.000000 0.000000 0.000000
		CHANNELS 3 Zrotation Yrotation Xrotation
		JOINT RightUpLeg
		{
			OFFSET -1.800000 -1.400000 0.085000
			CHANNELS 3 Zrotation Yrotation Xrotation
			JOINT RightLeg
			{
				OFFSET -2.215000 -6.000000 0.000000
				CHANNELS 3 Zrotation Yrotation Xrotation
				JOINT RightFoot
				{
					OFFSET -2.500000 -6.900000 0.000000
					CHANNELS 3 Zrotation Yrotation Xrotation
					JOINT RightToeBase
					{
						OFFSET -0.200000 -0.500000 1.950000
						CHANNELS 3 Zrotation Yrotation Xrotation
						End Site
						{
							OFFSET 0.000000 0.000000 0.000000
						}
					}
				}
			}
		}
	}
	JOINT LowerBack
	{
		OFFSET 0.000000 0.000000 0.000000
		CHANNELS 3 Zrotation Yrotation Xrotation
		JOINT Spine
		{
			OFFSET -0.087000 1.940000 -0.288900
			CHANNELS 3 Zrotation Yrotation Xrotation
			JOINT Spine1
			{
				OFFSET 0.000000 1.950000 0.060000
				CHANNELS 3 Zrotation Yrotation Xrotation
				JOINT Neck
				{
					OFFSET 0.000000 0.000000 0.000000
					CHANNELS 3 Zrotation Yrotation Xrotation
					JOINT Neck1
					{
						OFFSET 0.000000 1.600000 0.340000
						CHANNELS 3 Zrotation Yrotation Xrotation
						JOINT Head
						{
							OFFSET 0.000000 1.667000 -0.240000
							CHANNELS 3 Zrotation Yrotation Xrotation
							End Site
							{
								OFFSET 0.000000 0.000000 0.000000
							}
						}
					}
				}
				JOINT LeftShoulder
				{
					OFFSET 0.000000 0.000000 0.000000
					CHANNELS 3 Zrotation Yrotation Xrotation
					JOINT LeftArm
					{
						OFFSET 2.700000 1.550000 -0.730000
						CHANNELS 3 Zrotation Yrotation Xrotation
						JOINT LeftForeArm
						{
							OFFSET 5.450000 0.000000 0.000000
							CHANNELS 3 Zrotation Yrotation Xrotation
							JOINT LeftHand
							{
								OFFSET 3.450000 0.000000 0.000000
								CHANNELS 3 Zrotation Yrotation Xrotation
								JOINT LeftHandIndex1
								{
									OFFSET 0.750000 0.000000 0.000000
									CHANNELS 3 Zrotation Yrotation Xrotation
									End Site
									{
										OFFSET 0.000000 0.000000 0.000000
									}
								}
							}
						}
					}
				}
				JOINT RightShoulder
				{
					OFFSET 0.000000 0.000000 0.000000
					CHANNELS 3 Zrotation Yrotation Xrotation
					JOINT RightArm
					{
						OFFSET -2.700000 1.550000 -0.730000
						CHANNELS 3 Zrotation Yrotation Xrotation
						JOINT RightForeArm
						{
							OFFSET -5.450000 0.000000 0.000000
							CHANNELS 3 Zrotation Yrotation Xrotation
							JOINT RightHand
							{
								OFFSET -3.450000 0.000000 0.000000
								CHANNELS 3 Zrotation Yrotation Xrotation
								JOINT RightHandIndex1
								{
									OFFSET -0.750000 0.000000 0.000000
									CHANNELS 3 Zrotation Yrotation Xrotation
									End Site
									{
										OFFSET 0.000000 0.000000 0.000000
									}
								}
							}
						}
					}
				}
			}
		}
	}
}
MOTION
Frames: 14
Frame Time: 0.016667
0.761620 16.224660 -3.096660 -0.717632 -6.427022 8.999695 -15.211382 11.787956 4.146971 -1.357279 -5.059553 -37.447821 -3.787859 3.217975 7.753984 -0.529705 1.776865 3.785866 0.280850 0.260500 0.245960 18.250007 -11.010733 2.959708 -8.276727 -0.486393 2.123248 7.852387 -4.992337 3.885221 -0.472522 -4.461938 2.833013 0.214730 -0.039690 0.072290 -3.437534 0.105803 -8.222220 4.264488 7.309503 10.901045 -3.546572 9.029424 7.249496 4.393910 -4.312591 -11.795058 -9.059779 4.120197 41.324257 -4.337740 2.625350 -7.203330 -34.476785 -18.538802 5.970370 -48.721334 -8.021515 -2.618789 -8.659088 -20.161508 0.021514 -3.616387 3.045541 0.164270 0.003530 0.090150 0.032470 26.461926 28.191635 7.565226 33.790383 30.660764 2.984616 0.134041 20.674949 -0.182231 2.460214 -1.254597 -0.037100 0.108080 -0.055230 -0.093400 
0.761340 16.221150 -3.097010 -0.678836 -6.467582 9.062735 -15.215863 11.755120 4.138796 -1.496508 -5.112188 -37.668396 -3.544880 3.223728 8.112100 -0.533220 1.774363 3.785852 0.279780 0.260690 0.242150 18.253255 -10.983509 2.985373 -8.505581 -0.435195 2.382718 8.183516 -4.994902 3.366927 -0.482389 -4.513251 2.816953 0.217040 -0.034630 0.072970 -3.439017 0.125804 -8.219697 4.168890 7.396730 10.788530 -3.640653 9.116854 7.334434 4.454280 -4.253616 -11.765965 -8.908415 4.128904 41.185172 -4.252230 2.634660 -7.156740 -34.327891 -18.550908 5.951335 -48.663219 -8.178450 -2.465164 -8.513293 -19.817787 0.001847 -3.625396 3.044021 0.160660 0.008130 0.085890 0.032870 26.193398 28.194792 7.523841 33.506800 30.745541 2.937698 0.058550 21.112575 -0.180119 2.449877 -1.257634 -0.038360 0.108740 -0.052880 -0.092470 
0.765370 16.215180 -3.097200 -0.608925 -6.285711 9.231822 -15.228692 11.712791 4.149897 -1.856992 -5.274645 -38.158413 -3.227918 3.251643 8.814953 -0.525850 1.773378 3.787133 0.281200 0.264860 0.233440 18.252117 -10.912750 3.031056 -8.848490 -0.336372 2.805580 8.764059 -4.974561 2.473840 -0.499413 -4.590717 2.794611 0.219450 -0.025780 0.073610 -3.427596 0.082194 -8.242516 4.113093 7.408423 10.751336 -3.643338 9.134250 7.316128 4.467759 -4.418220 -11.767961 -9.218957 4.221960 40.774386 -3.972490 2.492470 -7.013320 -34.283317 -18.598079 5.916163 -48.698138 -8.388336 -2.099648 -8.098631 -18.688708 -0.062889 -3.634933 3.047048 0.150070 0.012200 0.079230 0.039580 26.129824 28.351770 7.566060 32.397268 30.517797 2.480321 0.091642 22.273589 -0.125803 2.431702 -1.270091 -0.034850 0.107910 -0.054670 -0.084570 
0.773460 16.212350 -3.094650 -0.598538 -6.156124 9.269136 -15.229670 11.688866 4.165562 -2.118612 -5.404471 -38.594086 -2.884038 3.310347 9.807023 -0.517867 1.792994 3.776977 0.283640 0.268730 0.230700 18.254400 -10.880447 3.067018 -9.136529 -0.249494 3.188589 9.013313 -4.954087 1.921954 -0.514693 -4.644611 2.777553 0.219850 -0.025830 0.073630 -3.435146 0.073249 -8.274456 4.274118 7.469052 10.931108 -3.927481 9.275109 7.270461 4.616487 -4.417858 -11.865893 -9.243253 4.129097 40.631925 -3.767510 2.283890 -7.042670 -34.227427 -18.742207 5.926510 -48.496968 -8.579321 -1.798357 -7.423159 -17.696469 -0.143758 -3.636927 3.045878 0.147770 0.009600 0.079590 0.042490 25.738294 28.556690 7.634336 31.113322 30.093248 1.869884 0.413719 24.060445 0.035165 2.402186 -1.281605 -0.031050 0.106580 -0.056970 -0.080470 
0.782290 16.215900 -3.087160 -0.606730 -5.850497 9.085169 -15.224820 11.737179 4.206791 -2.410457 -5.545733 -38.838038 -2.503459 3.366381 10.913563 -0.512198 1.827472 3.760863 0.285310 0.268540 0.230820 18.246536 -10.883253 3.071976 -9.187701 -0.238729 3.456875 8.839680 -4.981937 2.152310 -0.519636 -4.646637 2.775650 0.217060 -0.030290 0.073200 -3.433723 -0.019873 -8.332758 4.649884 7.327681 11.555474 -4.332258 9.300340 7.075837 4.757992 -4.531483 -12.109829 -9.591154 4.178800 40.768002 -3.585330 2.115680 -7.189070 -34.569530 -19.100863 5.986115 -47.551240 -8.729176 -1.392229 -6.703351 -16.230263 -0.210848 -3.633135 3.039975 0.155640 0.001230 0.085010 0.042800 25.725623 29.023053 7.824105 29.261188 29.305405 0.927585 1.284418 26.401297 0.385523 2.364610 -1.291686 -0.029550 0.107180 -0.057100 -0.079820 
0.798370 16.215110 -3.069980 -0.529712 -5.519313 8.869816 -15.223291 11.788784 4.257620 -2.949718 -5.770739 -38.919788 -2.070687 3.384415 11.959932 -0.513484 1.857592 3.749860 0.284590 0.267130 0.233660 18.236684 -10.912585 3.035910 -9.146883 -0.252895 3.468749 8.281062 -5.010412 2.866732 -0.509373 -4.609462 2.787843 0.216610 -0.032020 0.072140 -3.423957 -0.088657 -8.355638 4.895506 7.202696 12.115717 -4.700690 9.305455 6.863745 4.934399 -4.502869 -12.189052 -9.587457 4.132720 40.624737 -3.663770 2.106680 -7.436760 -34.801758 -19.286145 6.001421 -46.740465 -8.899850 -0.979455 -6.140948 -14.776471 -0.252072 -3.640450 3.025670 0.161690 -0.000940 0.088190 0.041020 25.520885 29.251375 7.808811 27.634603 28.496221 0.123524 2.671024 28.972497 0.906795 2.323399 -1.306008 -0.032500 0.111740 -0.055770 -0.082460 
0.819580 16.210930 -3.041620 -0.396599 -5.205845 8.564077 -15.222060 11.866219 4.306135 -3.561182 -5.991657 -38.695673 -1.720208 3.390298 12.883401 -0.510535 1.886056 3.738449 0.284350 0.267070 0.236010 18.221804 -10.960027 2.981510 -9.023547 -0.300113 3.425244 7.607936 -5.074193 4.016218 -0.495592 -4.562539 2.802815 0.214330 -0.036420 0.072060 -3.404580 -0.175952 -8.369931 5.099539 6.988140 12.635081 -5.067315 9.207517 6.761847 5.152047 -4.436666 -12.421134 -9.549321 4.183356 40.758462 -3.693330 2.177260 -7.548290 -34.738058 -19.683522 6.134349 -46.006093 -9.023772 -0.522816 -5.888280 -13.215076 -0.254110 -3.645986 3.014996 0.167260 -0.004190 0.093170 0.038970 24.977206 29.675158 7.767638 25.965219 27.830963 -0.215363 4.858166 30.565608 1.665585 2.302273 -1.311940 -0.031990 0.112070 -0.055440 -0.084390 
0.839680 16.209480 -3.001980 -0.247637 -4.729879 8.171617 -15.211114 11.955860 4.337057 -4.125284 -6.148024 -38.069657 -1.583099 3.394876 13.502284 -0.505721 1.900195 3.729578 0.292260 0.276550 0.247450 18.212686 -11.031875 2.927208 -8.750845 -0.396206 3.422880 6.754941 -5.127730 5.387557 -0.489540 -4.508757 2.816968 0.214330 -0.053240 0.069150 -3.407525 -0.238662 -8.380086 5.377447 6.657729 13.046512 -5.573262 8.998351 6.879586 5.410353 -4.239126 -12.837059 -9.302852 4.274460 41.408691 -3.594520 2.305270 -7.735710 -34.358873 -20.330787 6.397537 -45.287133 -9.071589 -0.104836 -6.046644 -11.760725 -0.221377 -3.637833 3.005825 0.179130 -0.017360 0.107230 0.036060 24.058403 30.228578 7.757419 24.956708 27.642332 -0.023930 6.769279 30.769873 2.277669 2.304375 -1.298526 -0.027620 0.109780 -0.061810 -0.088630 
0.861820 16.211810 -2.949660 -0.078211 -4.417906 7.824264 -15.193397 12.043906 4.343101 -4.574968 -6.199034 -37.148164 -1.658356 3.391324 13.650753 -0.504006 1.896781 3.728108 0.299970 0.285530 0.256860 18.208031 -11.122735 2.867419 -8.580598 -0.446250 3.230242 6.010424 -5.198286 6.971288 -0.482837 -4.459481 2.827958 0.213590 -0.068900 0.067290 -3.424610 -0.255734 -8.369420 5.627218 6.414459 13.228280 -6.063799 8.850541 7.072700 5.628422 -4.070078 -13.294432 -9.081255 4.352161 42.011954 -3.348170 2.369790 -8.038690 -33.758050 -20.937912 6.670475 -44.970808 -9.001213 0.202778 -6.109742 -10.573522 -0.213099 -3.628449 2.995782 0.194160 -0.032280 0.122660 0.033490 23.021915 30.754123 7.801096 24.586964 27.712468 0.511928 8.385599 29.917170 2.688661 2.319435 -1.268865 -0.023380 0.108830 -0.066500 -0.091920 
0.884580 16.220990 -2.891610 0.085776 -4.035413 7.521733 -15.184718 12.146019 4.344137 -4.927961 -6.188622 -36.099274 -1.872732 3.389052 13.465874 -0.502649 1.885912 3.731288 0.298220 0.282550 0.263160 18.192668 -11.213102 2.804327 -8.303758 -0.487970 2.877982 5.123911 -5.219974 8.677409 -0.469535 -4.397400 2.843788 0.205940 -0.080740 0.066360 -3.413529 -0.291910 -8.362049 5.652820 6.149008 13.298544 -6.442106 8.634730 7.325842 5.842226 -3.690353 -13.919709 -8.419219 4.443932 42.689608 -3.093750 2.660630 -8.082970 -33.217648 -21.847942 7.121818 -44.703815 -8.685481 0.412654 -6.234917 -9.456493 -0.208234 -3.620769 2.987686 0.208380 -0.042340 0.134750 0.027570 22.097483 31.434047 7.945130 24.695828 27.982959 1.188094 9.473394 28.385427 2.850743 2.342583 -1.227741 -0.022390 0.105310 -0.066800 -0.097510 
0.908350 16.232840 -2.823260 0.145726 -3.444806 7.264417 -15.168006 12.236125 4.335843 -5.152689 -6.125242 -35.019147 -2.124467 3.389496 13.167179 -0.499907 1.876770 3.736721 0.293950 0.274120 0.269300 18.188639 -11.319460 2.741417 -7.712169 -0.556123 2.425033 3.981450 -5.173119 10.630777 -0.454768 -4.333853 2.861259 0.195380 -0.091120 0.066690 -3.432875 -0.276359 -8.341622 5.836564 5.879841 13.176646 -6.866157 8.401377 7.622759 6.043324 -3.145361 -14.509644 -7.411663 4.237036 43.255698 -2.968640 2.831230 -7.955280 -32.596566 -22.733661 7.555038 -44.648376 -8.401555 0.515070 -6.408522 -8.727420 -0.202586 -3.613796 2.983280 0.219390 -0.049020 0.143520 0.022320 21.080418 31.910473 8.155889 25.517797 28.159436 1.883463 9.875371 26.629204 2.755221 2.367693 -1.191343 -0.021720 0.098700 -0.067990 -0.103530 
0.933900 16.249180 -2.750660 0.295778 -2.523387 6.992857 -15.157937 12.325380 4.334816 -5.254453 -6.071066 -33.960053 -2.725830 3.483917 12.996483 -0.489562 1.909799 3.724930 0.286450 0.260900 0.271570 18.178984 -11.416410 2.676001 -7.010271 -0.588895 1.891055 2.738025 -5.077581 12.862136 -0.439482 -4.284007 2.873497 0.181560 -0.100880 0.066920 -3.441091 -0.279765 -8.324139 5.963897 5.617286 13.055101 -7.076334 8.146147 7.882661 6.147530 -2.647989 -15.081759 -6.541835 3.929515 43.935716 -2.790060 2.801250 -7.678080 -31.942844 -23.602487 7.946968 -44.843795 -8.241330 0.579938 -6.676773 -8.272932 -0.193197 -3.606198 2.982617 0.228190 -0.055810 0.149200 0.015370 20.232336 32.370461 8.435019 26.514574 28.145999 2.634298 10.379352 24.406488 2.606389 2.403383 -1.153948 -0.019780 0.089620 -0.066360 -0.108290 
0.958990 16.268680 -2.676500 0.293765 -1.760246 6.708953 -15.142813 12.423445 4.319761 -5.103399 -5.921241 -32.903161 -3.294666 3.585760 12.780416 -0.478812 1.954174 3.710302 0.271460 0.240600 0.269510 18.170545 -11.525050 2.608763 -6.247619 -0.505882 0.938983 1.711954 -5.015619 15.774401 -0.419953 -4.270028 2.870500 0.166070 -0.105170 0.066410 -3.457232 -0.259373 -8.300247 6.136593 5.403059 12.957485 -7.310888 7.943450 8.076205 6.239253 -1.989897 -15.610401 -5.313254 3.521736 44.507575 -2.667270 2.839650 -7.168770 -31.406860 -24.525083 8.343095 -44.927614 -8.144563 0.673545 -6.848930 -7.668505 -0.188240 -3.608078 2.980183 0.231540 -0.056160 0.149090 0.006510 19.479283 32.782457 8.671233 27.761878 28.139243 3.485671 11.142714 21.947097 2.455879 2.444644 -1.120187 -0.021400 0.080250 -0.061320 -0.113230 
0.988720 16.294830 -2.599750 0.277604 -0.577440 6.326155 -15.125983 12.544758 4.296416 -5.090004 -5.746602 -31.589998 -3.569303 3.598882 12.347166 -0.466810 1.964772 3.711603 0.256080 0.217130 0.267020 18.162134 -11.612011 2.561057 -5.306668 -0.328463 -0.152721 0.794747 -4.965016 19.212290 -0.414199 -4.315570 2.845545 0.146480 -0.112350 0.064340 -3.487188 -0.303556 -8.296117 6.532758 4.969565 12.942075 -7.423418 7.520759 8.230137 6.234433 -1.489738 -16.206918 -4.528099 3.035309 45.467967 -2.599520 2.591850 -6.487050 -30.814370 -25.565087 8.741169 -45.228125 -8.224843 0.847617 -7.382297 -7.007833 -0.169571 -3.602702 2.977390 0.236500 -0.061540 0.150770 -0.000610 18.855064 33.311485 9.044328 29.182266 27.760042 4.089261 11.822385 19.718861 2.288762 2.485931 -1.096083 -0.021150 0.070680 -0.058120 -0.116170 
